<svg version="1.1" xmlns="http://www.w3.org/2000/svg" xmlns:xlink="http://www.w3.org/1999/xlink" width="1157" height="661"><defs><clipPath id="tcSKeqiQoPcC"><path fill="none" stroke="none" d=" M 0 0 L 1157 0 L 1157 661 L 0 661 L 0 0 Z"/></clipPath></defs><g transform="scale(1,1)" clip-path="url(#tcSKeqiQoPcC)"><g><rect fill="rgb(255,255,255)" stroke="none" x="0" y="0" width="1157" height="661" fill-opacity="1"/><path fill="none" stroke="rgb(0,0,0)" paint-order="fill stroke markers" d=" M 341.5995124557012 554.3777579174701 L 341.5995124557012 106.00296400661051" stroke-opacity="0.6980392156862745" stroke-linejoin="round" stroke-miterlimit="10" stroke-width="2.5" stroke-dasharray="2.5,3"/><path fill="none" stroke="rgb(0,0,0)" paint-order="fill stroke markers" d=" M 341.5995124557012 106.00296400661051 L 789.9743063665599 106.00296400661051" stroke-opacity="0.6980392156862745" stroke-linejoin="round" stroke-miterlimit="10" stroke-width="2.5" stroke-dasharray="2.5,3"/><path fill="none" stroke="rgb(0,0,0)" paint-order="fill stroke markers" d=" M 789.9743063665599 106.00296400661051 L 789.9743063665599 554.3777579174701" stroke-opacity="0.6980392156862745" stroke-linejoin="round" stroke-miterlimit="10" stroke-width="2.5" stroke-dasharray="2.5,3"/><path fill="none" stroke="rgb(0,0,0)" paint-order="fill stroke markers" d=" M 341.5995124557012 554.3777579174701 L 789.9743063665599 554.3777579174701" stroke-opacity="0.6980392156862745" stroke-linejoin="round" stroke-miterlimit="10" stroke-width="2.5" stroke-dasharray="2.5,3"/><path fill="none" stroke="rgb(0,0,0)" paint-order="fill stroke markers" d=" M 341.5995124557012 330.19036096204036 L 789.9743063665599 330.19036096204036" stroke-opacity="0.6980392156862745" stroke-linejoin="round" stroke-miterlimit="10" stroke-width="2.5" stroke-dasharray="2.5,3"/><path fill="none" stroke="rgb(0,0,0)" paint-order="fill stroke markers" d=" M 565.7869094111305 106.00296400661051 L 565.7869094111305 554.3777579174701" stroke-opacity="0.6980392156862745" stroke-linejoin="round" stroke-miterlimit="10" stroke-width="2.5" stroke-dasharray="2.5,3"/><path fill="none" stroke="rgb(0,0,0)" paint-order="fill stroke markers" d=" M 453.69321093341586 218.0966624843254 L 677.8806078888452 218.0966624843254" stroke-opacity="0.6980392156862745" stroke-linejoin="round" stroke-miterlimit="10" stroke-width="2.5" stroke-dasharray="6.5,4"/><path fill="none" stroke="rgb(0,0,0)" paint-order="fill stroke markers" d=" M 677.8806078888452 218.0966624843254 L 677.8806078888452 442.28405943975525" stroke-opacity="0.6980392156862745" stroke-linejoin="round" stroke-miterlimit="10" stroke-width="2.5" stroke-dasharray="6.5,4"/><path fill="none" stroke="rgb(0,0,0)" paint-order="fill stroke markers" d=" M 453.69321093341586 442.28405943975525 L 677.8806078888452 442.28405943975525" stroke-opacity="0.6980392156862745" stroke-linejoin="round" stroke-miterlimit="10" stroke-width="2.5" stroke-dasharray="6.5,4"/><path fill="none" stroke="rgb(0,0,0)" paint-order="fill stroke markers" d=" M 453.69321093341586 218.0966624843254 L 453.69321093341586 442.28405943975525" stroke-opacity="0.6980392156862745" stroke-linejoin="round" stroke-miterlimit="10" stroke-width="2.5" stroke-dasharray="6.5,4"/><path fill="none" stroke="rgb(0,0,0)" paint-order="fill stroke markers" d=" M 594.0074886223067 300.5903772166614 L 594.0074886223067 442.28405943975525" stroke-opacity="0.6980392156862745" stroke-linejoin="round" stroke-miterlimit="10" stroke-width="2.5" stroke-dasharray="6.5,4"/><path fill="none" stroke="rgb(0,0,0)" paint-order="fill stroke markers" d=" M 594.0074886223067 300.5903772166614 L 453.69321093341586 300.5903772166614" stroke-opacity="0.6980392156862745" stroke-linejoin="round" stroke-miterlimit="10" stroke-width="2.5" stroke-dasharray="6.5,4"/><path fill="none" stroke="rgb(0,0,0)" paint-order="fill stroke markers" d=" M 453.69321093341586 450.955227056816 L 594.0074886223067 450.955227056816" stroke-opacity="0.6980392156862745" stroke-linecap="round" stroke-linejoin="round" stroke-miterlimit="10" stroke-width="2.5"/><path fill="none" stroke="rgb(0,0,0)" paint-order="fill stroke markers" d=" M 453.69321093341586 450.955227056816 L 458.69321093341586 455.955227056816 M 458.69321093341586 445.955227056816 L 453.69321093341586 450.955227056816" stroke-opacity="1" stroke-linecap="round" stroke-linejoin="round" stroke-miterlimit="10" stroke-width="2.5"/><path fill="none" stroke="rgb(0,0,0)" paint-order="fill stroke markers" d=" M 594.0074886223067 450.955227056816 L 589.0074886223067 455.955227056816 M 589.0074886223067 445.955227056816 L 594.0074886223067 450.955227056816" stroke-opacity="1" stroke-linecap="round" stroke-linejoin="round" stroke-miterlimit="10" stroke-width="2.5"/><path fill="none" stroke="rgb(0,0,0)" paint-order="fill stroke markers" d=" M 441.7751581797069 300.5903772166614 L 441.7751581797069 442.28405943975525" stroke-opacity="0.6980392156862745" stroke-linecap="round" stroke-linejoin="round" stroke-miterlimit="10" stroke-width="2.5"/><path fill="none" stroke="rgb(0,0,0)" paint-order="fill stroke markers" d=" M 441.775158179707 300.5903772166614 L 436.775158179707 305.5903772166614 M 446.775158179707 305.5903772166614 L 441.775158179707 300.5903772166614" stroke-opacity="1" stroke-linecap="round" stroke-linejoin="round" stroke-miterlimit="10" stroke-width="2.5"/><path fill="none" stroke="rgb(0,0,0)" paint-order="fill stroke markers" d=" M 441.7751581797069 442.28405943975525 L 436.7751581797069 437.28405943975525 M 446.7751581797069 437.28405943975525 L 441.7751581797069 442.28405943975525" stroke-opacity="1" stroke-linecap="round" stroke-linejoin="round" stroke-miterlimit="10" stroke-width="2.5"/><path fill="rgb(68,68,68)" stroke="none" paint-order="stroke fill markers" d=" M 457.69321093341586 218.0966624843254 C 457.69321093341586 220.30580148364857 455.902349932739 222.0966624843254 453.69321093341586 222.0966624843254 C 451.4840719340927 222.0966624843254 449.69321093341586 220.30580148364857 449.69321093341586 218.0966624843254 C 449.69321093341586 215.88752348500222 451.4840719340927 214.0966624843254 453.69321093341586 214.0966624843254 C 455.902349932739 214.0966624843254 457.69321093341586 215.88752348500222 457.69321093341586 218.0966624843254 Z" fill-opacity="1"/><path fill="none" stroke="rgb(0,0,0)" paint-order="fill stroke markers" d=" M 457.69321093341586 218.0966624843254 C 457.69321093341586 220.30580148364857 455.902349932739 222.0966624843254 453.69321093341586 222.0966624843254 C 451.4840719340927 222.0966624843254 449.69321093341586 220.30580148364857 449.69321093341586 218.0966624843254 C 449.69321093341586 215.88752348500222 451.4840719340927 214.0966624843254 453.69321093341586 214.0966624843254 C 455.902349932739 214.0966624843254 457.69321093341586 215.88752348500222 457.69321093341586 218.0966624843254 Z" stroke-opacity="1" stroke-linecap="round" stroke-linejoin="round" stroke-miterlimit="10"/><text fill="rgb(68,68,68)" stroke="none" font-family="geogebra-sans-serif, sans-serif" font-size="16px" font-style="normal" font-weight="normal" text-decoration="normal" x="458" y="210" text-anchor="start" dominant-baseline="alphabetic" fill-opacity="1">t10</text><text fill="none" stroke="rgb(255,255,255)" font-family="geogebra-sans-serif, sans-serif" font-size="16px" font-style="normal" font-weight="normal" text-decoration="normal" x="458" y="210" text-anchor="start" dominant-baseline="alphabetic" stroke-opacity="1" stroke-linejoin="bevel" stroke-miterlimit="10" stroke-width="3">t10</text><text fill="rgb(68,68,68)" stroke="none" font-family="geogebra-sans-serif, sans-serif" font-size="16px" font-style="normal" font-weight="normal" text-decoration="normal" x="458" y="210" text-anchor="start" dominant-baseline="alphabetic" fill-opacity="1">t10</text><path fill="rgb(68,68,68)" stroke="none" paint-order="stroke fill markers" d=" M 681.8806078888452 218.0966624843254 C 681.8806078888452 220.30580148364857 680.0897468881684 222.0966624843254 677.8806078888452 222.0966624843254 C 675.6714688895221 222.0966624843254 673.8806078888452 220.30580148364857 673.8806078888452 218.0966624843254 C 673.8806078888452 215.88752348500222 675.6714688895221 214.0966624843254 677.8806078888452 214.0966624843254 C 680.0897468881684 214.0966624843254 681.8806078888452 215.88752348500222 681.8806078888452 218.0966624843254 Z" fill-opacity="1"/><path fill="none" stroke="rgb(0,0,0)" paint-order="fill stroke markers" d=" M 681.8806078888452 218.0966624843254 C 681.8806078888452 220.30580148364857 680.0897468881684 222.0966624843254 677.8806078888452 222.0966624843254 C 675.6714688895221 222.0966624843254 673.8806078888452 220.30580148364857 673.8806078888452 218.0966624843254 C 673.8806078888452 215.88752348500222 675.6714688895221 214.0966624843254 677.8806078888452 214.0966624843254 C 680.0897468881684 214.0966624843254 681.8806078888452 215.88752348500222 681.8806078888452 218.0966624843254 Z" stroke-opacity="1" stroke-linecap="round" stroke-linejoin="round" stroke-miterlimit="10"/><text fill="rgb(68,68,68)" stroke="none" font-family="geogebra-sans-serif, sans-serif" font-size="16px" font-style="normal" font-weight="normal" text-decoration="normal" x="682" y="210" text-anchor="start" dominant-baseline="alphabetic" fill-opacity="1">t11</text><text fill="none" stroke="rgb(255,255,255)" font-family="geogebra-sans-serif, sans-serif" font-size="16px" font-style="normal" font-weight="normal" text-decoration="normal" x="682" y="210" text-anchor="start" dominant-baseline="alphabetic" stroke-opacity="1" stroke-linejoin="bevel" stroke-miterlimit="10" stroke-width="3">t11</text><text fill="rgb(68,68,68)" stroke="none" font-family="geogebra-sans-serif, sans-serif" font-size="16px" font-style="normal" font-weight="normal" text-decoration="normal" x="682" y="210" text-anchor="start" dominant-baseline="alphabetic" fill-opacity="1">t11</text><path fill="rgb(68,68,68)" stroke="none" paint-order="stroke fill markers" d=" M 681.8806078888452 442.28405943975525 C 681.8806078888452 444.4931984390784 680.0897468881684 446.28405943975525 677.8806078888452 446.28405943975525 C 675.6714688895221 446.28405943975525 673.8806078888452 444.4931984390784 673.8806078888452 442.28405943975525 C 673.8806078888452 440.0749204404321 675.6714688895221 438.28405943975525 677.8806078888452 438.28405943975525 C 680.0897468881684 438.28405943975525 681.8806078888452 440.0749204404321 681.8806078888452 442.28405943975525 Z" fill-opacity="1"/><path fill="none" stroke="rgb(0,0,0)" paint-order="fill stroke markers" d=" M 681.8806078888452 442.28405943975525 C 681.8806078888452 444.4931984390784 680.0897468881684 446.28405943975525 677.8806078888452 446.28405943975525 C 675.6714688895221 446.28405943975525 673.8806078888452 444.4931984390784 673.8806078888452 442.28405943975525 C 673.8806078888452 440.0749204404321 675.6714688895221 438.28405943975525 677.8806078888452 438.28405943975525 C 680.0897468881684 438.28405943975525 681.8806078888452 440.0749204404321 681.8806078888452 442.28405943975525 Z" stroke-opacity="1" stroke-linecap="round" stroke-linejoin="round" stroke-miterlimit="10"/><text fill="rgb(68,68,68)" stroke="none" font-family="geogebra-sans-serif, sans-serif" font-size="16px" font-style="normal" font-weight="normal" text-decoration="normal" x="682" y="434" text-anchor="start" dominant-baseline="alphabetic" fill-opacity="1">t01</text><text fill="none" stroke="rgb(255,255,255)" font-family="geogebra-sans-serif, sans-serif" font-size="16px" font-style="normal" font-weight="normal" text-decoration="normal" x="682" y="434" text-anchor="start" dominant-baseline="alphabetic" stroke-opacity="1" stroke-linejoin="bevel" stroke-miterlimit="10" stroke-width="3">t01</text><text fill="rgb(68,68,68)" stroke="none" font-family="geogebra-sans-serif, sans-serif" font-size="16px" font-style="normal" font-weight="normal" text-decoration="normal" x="682" y="434" text-anchor="start" dominant-baseline="alphabetic" fill-opacity="1">t01</text><path fill="rgb(68,68,68)" stroke="none" paint-order="stroke fill markers" d=" M 457.69321093341586 442.28405943975525 C 457.69321093341586 444.4931984390784 455.902349932739 446.28405943975525 453.69321093341586 446.28405943975525 C 451.4840719340927 446.28405943975525 449.69321093341586 444.4931984390784 449.69321093341586 442.28405943975525 C 449.69321093341586 440.0749204404321 451.4840719340927 438.28405943975525 453.69321093341586 438.28405943975525 C 455.902349932739 438.28405943975525 457.69321093341586 440.0749204404321 457.69321093341586 442.28405943975525 Z" fill-opacity="1"/><path fill="none" stroke="rgb(0,0,0)" paint-order="fill stroke markers" d=" M 457.69321093341586 442.28405943975525 C 457.69321093341586 444.4931984390784 455.902349932739 446.28405943975525 453.69321093341586 446.28405943975525 C 451.4840719340927 446.28405943975525 449.69321093341586 444.4931984390784 449.69321093341586 442.28405943975525 C 449.69321093341586 440.0749204404321 451.4840719340927 438.28405943975525 453.69321093341586 438.28405943975525 C 455.902349932739 438.28405943975525 457.69321093341586 440.0749204404321 457.69321093341586 442.28405943975525 Z" stroke-opacity="1" stroke-linecap="round" stroke-linejoin="round" stroke-miterlimit="10"/><text fill="rgb(68,68,68)" stroke="none" font-family="geogebra-sans-serif, sans-serif" font-size="16px" font-style="normal" font-weight="normal" text-decoration="normal" x="458" y="434" text-anchor="start" dominant-baseline="alphabetic" fill-opacity="1">t00</text><text fill="none" stroke="rgb(255,255,255)" font-family="geogebra-sans-serif, sans-serif" font-size="16px" font-style="normal" font-weight="normal" text-decoration="normal" x="458" y="434" text-anchor="start" dominant-baseline="alphabetic" stroke-opacity="1" stroke-linejoin="bevel" stroke-miterlimit="10" stroke-width="3">t00</text><text fill="rgb(68,68,68)" stroke="none" font-family="geogebra-sans-serif, sans-serif" font-size="16px" font-style="normal" font-weight="normal" text-decoration="normal" x="458" y="434" text-anchor="start" dominant-baseline="alphabetic" fill-opacity="1">t00</text><path fill="rgb(204,0,0)" stroke="none" paint-order="stroke fill markers" d=" M 599.0074886223067 300.5903772166614 C 599.0074886223067 303.35180096581536 596.7689123714607 305.5903772166614 594.0074886223067 305.5903772166614 C 591.2460648731527 305.5903772166614 589.0074886223067 303.35180096581536 589.0074886223067 300.5903772166614 C 589.0074886223067 297.82895346750746 591.2460648731527 295.5903772166614 594.0074886223067 295.5903772166614 C 596.7689123714607 295.5903772166614 599.0074886223067 297.82895346750746 599.0074886223067 300.5903772166614 Z" fill-opacity="1"/><path fill="none" stroke="rgb(0,0,0)" paint-order="fill stroke markers" d=" M 599.0074886223067 300.5903772166614 C 599.0074886223067 303.35180096581536 596.7689123714607 305.5903772166614 594.0074886223067 305.5903772166614 C 591.2460648731527 305.5903772166614 589.0074886223067 303.35180096581536 589.0074886223067 300.5903772166614 C 589.0074886223067 297.82895346750746 591.2460648731527 295.5903772166614 594.0074886223067 295.5903772166614 C 596.7689123714607 295.5903772166614 599.0074886223067 297.82895346750746 599.0074886223067 300.5903772166614 Z" stroke-opacity="1" stroke-linecap="round" stroke-linejoin="round" stroke-miterlimit="10"/><text fill="rgb(204,0,0)" stroke="none" font-family="geogebra-sans-serif, sans-serif" font-size="16px" font-style="normal" font-weight="normal" text-decoration="normal" x="598" y="291" text-anchor="start" dominant-baseline="alphabetic" fill-opacity="1">p</text><text fill="none" stroke="rgb(255,255,255)" font-family="geogebra-sans-serif, sans-serif" font-size="16px" font-style="normal" font-weight="normal" text-decoration="normal" x="598" y="291" text-anchor="start" dominant-baseline="alphabetic" stroke-opacity="1" stroke-linejoin="bevel" stroke-miterlimit="10" stroke-width="3">p</text><text fill="rgb(204,0,0)" stroke="none" font-family="geogebra-sans-serif, sans-serif" font-size="16px" font-style="normal" font-weight="normal" text-decoration="normal" x="598" y="291" text-anchor="start" dominant-baseline="alphabetic" fill-opacity="1">p</text><text fill="rgb(0,0,0)" stroke="none" font-family="geogebra-sans-serif, sans-serif" font-size="16px" font-style="normal" font-weight="normal" text-decoration="normal" x="521" y="467" text-anchor="start" dominant-baseline="alphabetic" fill-opacity="1">u</text><text fill="rgb(0,0,0)" stroke="none" font-family="geogebra-sans-serif, sans-serif" font-size="16px" font-style="normal" font-weight="normal" text-decoration="normal" x="422" y="371" text-anchor="start" dominant-baseline="alphabetic" fill-opacity="1">v</text></g></g></svg>